REM DIRINDEX 1\4,1\2\5,1\2\6,1\3\7,1\3\8
REM DIRNAME cjc124,folder01,folder02,folder03,folder04,folder05,folder06,folder07
TITLE ""
FILE "052_Day26_Check3_Sentences.mp3" MP3
  TRACK 01 AUDIO
    TITLE "0:"
    INDEX 01 00:00:00
  TRACK 02 AUDIO
    TITLE "4:cjc124_1686"
    INDEX 01 00:00:25
  TRACK 03 AUDIO
    TITLE "0:"
    INDEX 01 00:01:52
  TRACK 04 AUDIO
    TITLE "7:cjc124_1687"
    INDEX 01 00:02:24
  TRACK 05 AUDIO
    TITLE "0:"
    INDEX 01 00:04:33
  TRACK 06 AUDIO
    TITLE "8:cjc124_1688"
    INDEX 01 00:04:48
  TRACK 07 AUDIO
    TITLE "0:"
    INDEX 01 00:06:53
  TRACK 08 AUDIO
    TITLE "7:cjc124_1689"
    INDEX 01 00:07:17
  TRACK 09 AUDIO
    TITLE "0:"
    INDEX 01 00:11:01
  TRACK 10 AUDIO
    TITLE "8:cjc124_1690"
    INDEX 01 00:11:17
  TRACK 11 AUDIO
    TITLE "0:"
    INDEX 01 00:14:64
  TRACK 12 AUDIO
    TITLE "7:cjc124_1691"
    INDEX 01 00:15:32
  TRACK 13 AUDIO
    TITLE "0:"
    INDEX 01 00:18:62
  TRACK 14 AUDIO
    TITLE "8:cjc124_1692"
    INDEX 01 00:19:05
  TRACK 15 AUDIO
    TITLE "0:"
    INDEX 01 00:22:42
  TRACK 16 AUDIO
    TITLE "7:cjc124_1693"
    INDEX 01 00:23:04
  TRACK 17 AUDIO
    TITLE "0:"
    INDEX 01 00:27:30
  TRACK 18 AUDIO
    TITLE "8:cjc124_1694"
    INDEX 01 00:27:45
  TRACK 19 AUDIO
    TITLE "0:"
    INDEX 01 00:31:39
  TRACK 20 AUDIO
    TITLE "7:cjc124_1695"
    INDEX 01 00:32:01
  TRACK 21 AUDIO
    TITLE "0:"
    INDEX 01 00:36:03
  TRACK 22 AUDIO
    TITLE "8:cjc124_1696"
    INDEX 01 00:36:15
  TRACK 23 AUDIO
    TITLE "0:"
    INDEX 01 00:39:45
  TRACK 24 AUDIO
    TITLE "7:cjc124_1697"
    INDEX 01 00:40:07
  TRACK 25 AUDIO
    TITLE "0:"
    INDEX 01 00:43:25
  TRACK 26 AUDIO
    TITLE "8:cjc124_1698"
    INDEX 01 00:43:42
  TRACK 27 AUDIO
    TITLE "0:"
    INDEX 01 00:46:23
  TRACK 28 AUDIO
    TITLE "7:cjc124_1699"
    INDEX 01 00:46:60
  TRACK 29 AUDIO
    TITLE "0:"
    INDEX 01 00:50:13
  TRACK 30 AUDIO
    TITLE "8:cjc124_1700"
    INDEX 01 00:50:39
  TRACK 31 AUDIO
    TITLE "0:"
    INDEX 01 00:53:08
  TRACK 32 AUDIO
    TITLE "7:cjc124_1701"
    INDEX 01 00:53:43
  TRACK 33 AUDIO
    TITLE "0:"
    INDEX 01 00:57:15
  TRACK 34 AUDIO
    TITLE "8:cjc124_1702"
    INDEX 01 00:57:41
  TRACK 35 AUDIO
    TITLE "0:"
    INDEX 01 01:00:64
  TRACK 36 AUDIO
    TITLE "7:cjc124_1703"
    INDEX 01 01:01:25
  TRACK 37 AUDIO
    TITLE "0:"
    INDEX 01 01:03:57
  TRACK 38 AUDIO
    TITLE "8:cjc124_1704"
    INDEX 01 01:03:73
  TRACK 39 AUDIO
    TITLE "0:"
    INDEX 01 01:06:42
  TRACK 40 AUDIO
    TITLE "7:cjc124_1705"
    INDEX 01 01:07:02
  TRACK 41 AUDIO
    TITLE "0:"
    INDEX 01 01:12:68
  TRACK 42 AUDIO
    TITLE "8:cjc124_1706"
    INDEX 01 01:13:10
  TRACK 43 AUDIO
    TITLE "0:"
    INDEX 01 01:17:47
  TRACK 44 AUDIO
    TITLE "7:cjc124_1707"
    INDEX 01 01:18:09
  TRACK 45 AUDIO
    TITLE "0:"
    INDEX 01 01:21:04
  TRACK 46 AUDIO
    TITLE "8:cjc124_1708"
    INDEX 01 01:21:21
  TRACK 47 AUDIO
    TITLE "0:"
    INDEX 01 01:24:34
  TRACK 48 AUDIO
    TITLE "7:cjc124_1709"
    INDEX 01 01:24:71
  TRACK 49 AUDIO
    TITLE "0:"
    INDEX 01 01:29:01
  TRACK 50 AUDIO
    TITLE "8:cjc124_1710"
    INDEX 01 01:29:17
  TRACK 51 AUDIO
    TITLE "0:"
    INDEX 01 01:33:11
  TRACK 52 AUDIO
    TITLE "7:cjc124_1711"
    INDEX 01 01:33:50
  TRACK 53 AUDIO
    TITLE "0:"
    INDEX 01 01:36:09
  TRACK 54 AUDIO
    TITLE "8:cjc124_1712"
    INDEX 01 01:36:27
  TRACK 55 AUDIO
    TITLE "0:"
    INDEX 01 01:38:57
  TRACK 56 AUDIO
    TITLE "7:cjc124_1713"
    INDEX 01 01:39:19
  TRACK 57 AUDIO
    TITLE "0:"
    INDEX 01 01:42:53
  TRACK 58 AUDIO
    TITLE "8:cjc124_1714"
    INDEX 01 01:42:67
  TRACK 59 AUDIO
    TITLE "0:"
    INDEX 01 01:44:66
  TRACK 60 AUDIO
    TITLE "7:cjc124_1715"
    INDEX 01 01:45:26
  TRACK 61 AUDIO
    TITLE "0:"
    INDEX 01 01:48:34
  TRACK 62 AUDIO
    TITLE "8:cjc124_1716"
    INDEX 01 01:48:50
  TRACK 63 AUDIO
    TITLE "0:"
    INDEX 01 01:51:09
  TRACK 64 AUDIO
    TITLE "7:cjc124_1717"
    INDEX 01 01:51:46
  TRACK 65 AUDIO
    TITLE "0:"
    INDEX 01 01:54:03
  TRACK 66 AUDIO
    TITLE "8:cjc124_1718"
    INDEX 01 01:54:19
  TRACK 67 AUDIO
    TITLE "0:"
    INDEX 01 01:56:12
